<svg width="26" height="34" viewBox="0 0 26 34" fill="none" xmlns="http://www.w3.org/2000/svg">
<path d="M25.7194 31.9174L24.4365 9.73036C24.3865 8.85288 23.659 8.16977 22.7815 8.16977H19.5659V6.7036C19.5659 3.18255 16.7113 0.333496 13.1958 0.333496C9.67474 0.333496 6.82569 3.1881 6.82569 6.7036V8.16977H3.61009C2.7326 8.16977 2.00507 8.85288 1.95509 9.73036L0.67218 31.9174L0.666626 32.0118C0.666626 32.9226 1.40527 33.6668 2.32718 33.6668H24.0699C24.9919 33.6668 25.7249 32.9226 25.7305 32.0118L25.7194 31.9174ZM8.20856 6.69804C8.20856 5.32072 8.76393 4.07669 9.66918 3.17699C10.5744 2.27174 11.8129 1.71637 13.1902 1.71637C14.5676 1.71637 15.8116 2.27174 16.7113 3.17699C17.6165 4.08225 18.1719 5.32072 18.1719 6.69804V8.16422H8.20856V6.69804ZM24.0588 32.284H2.32163C2.17168 32.284 2.0495 32.1618 2.0495 32.0174V32.0063L3.3324 9.80812C3.33796 9.66372 3.46014 9.55265 3.59898 9.55265H6.81458V12.6738C6.81458 13.057 7.12559 13.368 7.50879 13.368C7.892 13.368 8.203 13.057 8.203 12.6738V9.5582H18.1664V12.6794C18.1664 13.0626 18.4774 13.3736 18.8606 13.3736C19.2438 13.3736 19.5548 13.0626 19.5548 12.6794V9.5582H22.7704C22.9148 9.5582 23.0314 9.66927 23.037 9.81367L24.3199 32.0007V32.0174C24.331 32.1618 24.2088 32.284 24.0588 32.284Z" fill="#996D01"/>
</svg>
