<svg width="16" height="17" viewBox="0 0 16 17" fill="none" xmlns="http://www.w3.org/2000/svg">
<path d="M8.39972 8.49996L14.7711 2.12854C14.8854 2.01425 14.8854 1.84282 14.7711 1.72854C14.6569 1.61425 14.4854 1.61425 14.3711 1.72854L7.99972 8.09996L1.62829 1.72854C1.51401 1.61425 1.34258 1.61425 1.22829 1.72854C1.11401 1.84282 1.11401 2.01425 1.22829 2.12854L7.59972 8.49996L1.22829 14.8714C1.11401 14.9857 1.11401 15.1571 1.22829 15.2714C1.34258 15.3857 1.51401 15.3857 1.62829 15.2714L7.99972 8.89996L14.3711 15.2714C14.4854 15.3857 14.6569 15.3857 14.7711 15.2714C14.8854 15.1571 14.8854 14.9857 14.7711 14.8714L8.39972 8.49996Z" fill="#747067"/>
</svg>
