<svg width="24" height="25" viewBox="0 0 24 25" fill="none" xmlns="http://www.w3.org/2000/svg">
<path d="M8.90486 13.4353C8.81662 13.1388 8.76721 12.8282 8.76721 12.5C8.76721 11.6071 9.12721 10.8024 9.71309 10.2129C10.299 9.62706 11.1037 9.26706 12.0002 9.26706C12.3249 9.26706 12.639 9.31648 12.9354 9.40471L13.7543 8.58589C13.2178 8.34589 12.6284 8.20471 12.0037 8.20471C9.63191 8.20471 7.71191 10.1247 7.71191 12.4965C7.71191 13.1212 7.84956 13.7141 8.09309 14.2471L8.90486 13.4353Z" fill="#747067"/>
<path d="M15.0955 11.5647C15.1837 11.8612 15.2332 12.1718 15.2332 12.5C15.2332 13.393 14.8732 14.1977 14.2873 14.7871C13.7014 15.373 12.8967 15.733 12.0002 15.733C11.6755 15.733 11.3614 15.6836 11.0649 15.5953L10.2461 16.4141C10.7826 16.6541 11.3755 16.7918 12.0002 16.7918C14.372 16.7918 16.292 14.8718 16.292 12.5C16.292 11.8753 16.1543 11.2824 15.9143 10.7459L15.0955 11.5647Z" fill="#747067"/>
<path d="M20.456 3.29528L2.79485 20.9565C2.58661 21.1647 2.58661 21.5 2.79485 21.7047C3.00308 21.9129 3.33838 21.9129 3.54308 21.7047L21.2043 4.04351C21.4125 3.83528 21.4125 3.49998 21.2043 3.29528C20.9996 3.08704 20.6643 3.08704 20.456 3.29528Z" fill="#747067"/>
<path d="M5.33345 17.007L6.08874 16.2517C4.78639 15.2741 3.72756 13.9929 3.03227 12.5035C4.60639 9.12232 8.02286 6.77527 11.997 6.7788C13.0699 6.7788 14.1005 6.95527 15.0676 7.27291L15.897 6.4435C14.6864 5.97762 13.3734 5.71997 11.997 5.71997C7.50757 5.71997 3.64639 8.4235 1.95933 12.2917L1.87109 12.5L1.96286 12.7117C2.70756 14.4164 3.87933 15.8882 5.33345 17.007Z" fill="#747067"/>
<path d="M22.0379 12.2883C21.2931 10.5835 20.1284 9.10825 18.6743 7.9859L17.9155 8.74472C19.2179 9.72237 20.2696 11.0106 20.9649 12.5C19.3908 15.8812 15.9743 18.2283 12.0002 18.2247C10.9273 18.2247 9.89668 18.0483 8.92962 17.7306L8.09668 18.5635C9.3108 19.0259 10.6237 19.2835 12.0002 19.2835C16.4896 19.2835 20.3508 16.58 22.0379 12.7118L22.1296 12.5L22.0379 12.2883Z" fill="#747067"/>
</svg>
