<svg width="24" height="24" viewBox="0 0 24 24" fill="none" xmlns="http://www.w3.org/2000/svg">
<g clip-path="url(#clip0_18_14655)">
<path d="M11.7159 5.47412C8.16496 5.47412 5.28516 8.35392 5.28516 11.9048C5.28516 15.4558 8.16496 18.3356 11.7159 18.3356C15.2668 18.3356 18.1466 15.4558 18.1466 11.9048C18.1516 8.35392 15.2718 5.47412 11.7159 5.47412ZM11.6858 16.1269C9.35694 16.1269 7.4738 14.2387 7.4738 11.9149C7.4738 9.59099 9.36195 7.70284 11.6858 7.70284C14.0097 7.70284 15.8978 9.59099 15.8978 11.9149C15.8978 14.2387 14.0147 16.1269 11.6858 16.1269Z" fill="#747067"/>
<path d="M18.2491 3.85156C17.4077 3.85156 16.7266 4.5327 16.7266 5.3741C16.7266 6.2155 17.4077 6.89663 18.2491 6.89663C19.0905 6.89663 19.7716 6.2155 19.7716 5.3741C19.7716 4.5327 19.0905 3.85156 18.2491 3.85156Z" fill="#747067"/>
<path d="M16.5626 0H6.79633C3.0601 0 0 3.0601 0 6.79633V17.2037C0 20.9399 3.0601 24 6.79633 24H16.5626C20.2988 24 23.3589 20.9399 23.3589 17.2037V6.79633C23.3589 3.0601 20.3038 0 16.5626 0ZM21.5659 17.2037C21.5659 18.5309 21.0451 19.783 20.0935 20.7346C19.1469 21.6811 17.8898 22.207 16.5626 22.207H6.79633C5.46911 22.207 4.21703 21.6861 3.26544 20.7346C2.31886 19.788 1.79299 18.5309 1.79299 17.2037V6.79633C1.79299 5.46911 2.31386 4.21703 3.26544 3.26544C4.21202 2.31886 5.46911 1.79299 6.79633 1.79299H16.5626C17.8898 1.79299 19.1419 2.31386 20.0935 3.26544C21.0401 4.21202 21.5659 5.46911 21.5659 6.79633V17.2037Z" fill="#747067"/>
</g>
<defs>
<clipPath id="clip0_18_14655">
<rect width="24" height="24" fill="white"/>
</clipPath>
</defs>
</svg>
