<svg width="24" height="24" viewBox="0 0 24 24" fill="none" xmlns="http://www.w3.org/2000/svg">
<g clip-path="url(#clip0_18_14657)">
<path d="M0 12C0 16.9125 2.95312 21.1313 7.18125 22.9875C7.14375 22.1531 7.17188 21.1406 7.3875 20.2313C7.62188 19.2563 8.93438 13.6969 8.93438 13.6969C8.93438 13.6969 8.55 12.9281 8.55 11.7938C8.55 10.0125 9.58125 8.69062 10.8656 8.69062C11.9531 8.69062 12.4875 9.50625 12.4875 10.4906C12.4875 11.5875 11.7844 13.2281 11.4281 14.7469C11.1281 16.0219 12.0656 17.0625 13.3219 17.0625C15.6 17.0625 17.1281 14.1469 17.1281 10.6781C17.1281 8.04375 15.3562 6.075 12.1312 6.075C8.49375 6.075 6.225 8.79375 6.225 11.8219C6.225 12.8719 6.53438 13.6031 7.0125 14.175C7.2375 14.4375 7.26562 14.5406 7.18125 14.8406C7.125 15.0656 6.99375 15.5906 6.9375 15.8063C6.85313 16.1063 6.60938 16.2188 6.3375 16.1063C4.66875 15.4313 3.88125 13.5938 3.88125 11.5312C3.88125 8.11875 6.75937 4.03125 12.4594 4.03125C17.0437 4.03125 20.0531 7.35 20.0531 10.9031C20.0531 15.6094 17.4375 19.125 13.575 19.125C12.2812 19.125 11.0625 18.4219 10.6406 17.625C10.6406 17.625 9.94687 20.3906 9.79688 20.925C9.54375 21.8531 9.04688 22.7719 8.5875 23.4938C9.66562 23.8125 10.8094 23.9813 11.9906 23.9813C18.6187 23.9813 23.9906 18.6094 23.9906 11.9813C24 5.37188 18.6281 0 12 0C5.37188 0 0 5.37188 0 12Z" fill="#747067"/>
</g>
<defs>
<clipPath id="clip0_18_14657">
<rect width="24" height="24" fill="white"/>
</clipPath>
</defs>
</svg>
