<svg width="24" height="25" viewBox="0 0 24 25" fill="none" xmlns="http://www.w3.org/2000/svg">
<path d="M12 2.5C6.44444 2.5 2 6.94444 2 12.5C2 18.0556 6.44444 22.5 12 22.5C17.5556 22.5 22 18.0556 22 12.5C22 6.94444 17.4815 2.5 12 2.5ZM17.1852 13.2407H12.7407V17.6852C12.7407 18.0926 12.4074 18.4259 12 18.4259C11.5926 18.4259 11.2593 18.0926 11.2593 17.6852V13.2407H6.81481C6.40741 13.2407 6.07407 12.9074 6.07407 12.5C6.07407 12.0926 6.40741 11.7593 6.81481 11.7593H11.2593V7.31481C11.2593 6.90741 11.5926 6.57407 12 6.57407C12.4074 6.57407 12.7407 6.90741 12.7407 7.31481V11.7593H17.1852C17.5926 11.7593 17.9259 12.0926 17.9259 12.5C17.9259 12.9074 17.5926 13.2407 17.1852 13.2407Z" fill="#996D01"/>
</svg>
