<svg width="31" height="31" viewBox="0 0 31 31" fill="none" xmlns="http://www.w3.org/2000/svg">
<path d="M15.4631 8.85709C15.4028 8.8306 15.3338 8.81708 15.2646 8.81659C15.2603 8.81656 15.256 8.81218 15.2517 8.81215C15.2474 8.81212 15.243 8.81643 15.2387 8.8164C15.1696 8.81591 15.1047 8.82849 15.0397 8.85409C14.9747 8.87969 14.9139 8.91836 14.866 8.97015L9.40865 14.3298C9.19541 14.5411 9.19297 14.8843 9.4032 15.0987C9.61342 15.313 9.95479 15.3154 10.168 15.1041L14.6984 10.6632L14.6067 24.8222C14.6046 25.1219 14.8449 25.3669 15.143 25.369C15.4412 25.3711 15.6849 25.1296 15.687 24.8298L15.7787 10.6752L19.8347 14.943C20.0449 15.1574 20.3863 15.1598 20.5995 14.9485C20.8128 14.7371 20.8152 14.3939 20.605 14.1796L15.6351 8.97995C15.5836 8.92746 15.5277 8.88796 15.4631 8.85709Z" fill="white"/>
<path fill-rule="evenodd" clip-rule="evenodd" d="M26.5781 5.13038C26.5781 5.46909 26.3035 5.74367 25.9648 5.74367H3.88635C3.54764 5.74367 3.27306 5.46909 3.27306 5.13038C3.27306 4.79167 3.54764 4.51709 3.88635 4.51709H25.9648C26.3035 4.51709 26.5781 4.79167 26.5781 5.13038Z" fill="white"/>
</svg>
