<svg width="29" height="30" viewBox="0 0 29 30" fill="none" xmlns="http://www.w3.org/2000/svg">
<path fill-rule="evenodd" clip-rule="evenodd" d="M14.5952 13.5714C15.796 13.5714 16.9699 13.2153 17.9683 12.5482C18.9667 11.8811 19.7449 10.9328 20.2045 9.82344C20.664 8.71403 20.7842 7.49327 20.55 6.31552C20.3157 5.13778 19.7375 4.05596 18.8883 3.20686C18.0392 2.35775 16.9574 1.7795 15.7797 1.54524C14.6019 1.31097 13.3812 1.4312 12.2718 1.89074C11.1624 2.35027 10.2141 3.12846 9.54699 4.1269C8.87985 5.12534 8.52377 6.29919 8.52377 7.5C8.52377 9.11024 9.16344 10.6545 10.3021 11.7931C11.4407 12.9318 12.985 13.5714 14.5952 13.5714ZM6.5194 20.5724C3.73065 21.9474 2.0952 23.7285 2.0952 25.7143C2.0952 27.2922 3.37438 28.5714 4.95234 28.5714H24.2381C25.816 28.5714 27.0952 27.2922 27.0952 25.7143C27.0952 23.7285 25.4597 21.9474 22.671 20.5724C19.9631 19.2373 16.6968 18.5714 14.5952 18.5714C12.4936 18.5714 9.2273 19.2373 6.5194 20.5724ZM14.5952 15C16.0786 15 17.5286 14.5601 18.762 13.736C19.9953 12.9119 20.9566 11.7406 21.5243 10.3701C22.092 8.99968 22.2405 7.49168 21.9511 6.03682C21.6617 4.58197 20.9474 3.2456 19.8985 2.1967C18.8496 1.14781 17.5132 0.433503 16.0584 0.144114C14.6035 -0.145275 13.0955 0.00324965 11.7251 0.570907C10.3546 1.13856 9.18329 2.09986 8.35918 3.33323C7.53506 4.56659 7.0952 6.01664 7.0952 7.5C7.0952 9.48913 7.88537 11.3968 9.2919 12.8033C10.6984 14.2098 12.6061 15 14.5952 15ZM14.5952 17.1429C9.94654 17.1429 0.666626 20.0143 0.666626 25.7143C0.666626 28.0812 2.58541 30 4.95234 30H24.2381C26.605 30 28.5238 28.0812 28.5238 25.7143C28.5238 20.0143 19.2439 17.1429 14.5952 17.1429Z" fill="#996D01"/>
</svg>
