<svg width="24" height="24" viewBox="0 0 24 24" fill="none" xmlns="http://www.w3.org/2000/svg">
<path fill-rule="evenodd" clip-rule="evenodd" d="M9.50725 4.06679C12.9647 3.90249 16.5795 4.07384 19.9055 4.2311C22.2575 4.34377 23.3208 5.32726 23.6846 7.47029C23.8372 8.37162 23.8958 9.74711 23.9428 10.7329C24.0531 13.0896 24.0226 15.5448 23.6846 17.446C23.3067 19.575 22.2856 20.5702 19.8821 20.6852C15.4927 20.8941 10.8405 20.9528 6.17417 20.7791C3.84101 20.6923 1.67451 20.6876 0.822463 19.1126C0.104208 17.7817 0.000929127 15.6645 0.000929127 13.5966C0.000929127 11.5779 -0.029585 9.21898 0.259126 7.51723C0.573656 5.6723 1.38111 4.50103 3.38095 4.30152C5.28691 4.11139 7.30554 4.17242 9.50725 4.06679ZM9.50725 15.5448C11.6292 14.505 13.805 13.3173 15.9622 12.2352C13.8567 11.0545 11.6503 9.97479 9.50725 8.83168C9.50725 11.0686 9.50725 13.3079 9.50725 15.5448Z" fill="#747067"/>
</svg>
