<?xml version="1.0" encoding="UTF-8"?>
<!DOCTYPE svg PUBLIC "-//W3C//DTD SVG 1.1//EN" "http://www.w3.org/Graphics/SVG/1.1/DTD/svg11.dtd">
<svg xmlns="http://www.w3.org/2000/svg" version="1.1" width="518px" height="482px" style="shape-rendering:geometricPrecision; text-rendering:geometricPrecision; image-rendering:optimizeQuality; fill-rule:evenodd; clip-rule:evenodd" xmlns:xlink="http://www.w3.org/1999/xlink">
<g><path style="opacity:1" fill="#007de4" d="M 148.5,-0.5 C 149.167,-0.5 149.833,-0.5 150.5,-0.5C 185.155,28.6491 219.988,57.6491 255,86.5C 276.156,69.347 297.322,52.1804 318.5,35C 332.384,23.2726 346.051,11.4392 359.5,-0.5C 360.5,-0.5 361.5,-0.5 362.5,-0.5C 411.402,32.2983 460.736,64.6316 510.5,96.5C 477.294,124.537 443.627,152.037 409.5,179C 408.833,180 408.167,181 407.5,182C 440.476,208.303 473.476,234.636 506.5,261C 508.607,262.264 509.607,264.097 509.5,266.5C 459.506,297.59 410.006,329.59 361,362.5C 325.946,333.108 290.613,304.108 255,275.5C 219.428,303.732 184.428,332.732 150,362.5C 100.374,328.941 50.207,296.274 -0.5,264.5C -0.5,263.833 -0.5,263.167 -0.5,262.5C 35.0422,235.878 69.7089,208.878 103.5,181.5C 69.1282,153.128 34.4616,125.128 -0.5,97.5C -0.5,97.1667 -0.5,96.8333 -0.5,96.5C 49.4499,64.3741 99.1165,32.0408 148.5,-0.5 Z M 254.5,87.5 C 304.539,118.383 354.872,149.716 405.5,181.5C 355.719,212.778 305.552,243.444 255,273.5C 204.579,243.71 154.746,213.044 105.5,181.5C 155.207,150.106 204.873,118.773 254.5,87.5 Z"/></g>
<g><path style="opacity:1" fill="#007de4" d="M 255.5,293.5 C 290.29,322.079 324.956,350.912 359.5,380C 361.289,380.52 362.956,380.187 364.5,379C 377.672,370.581 390.672,361.915 403.5,353C 404.759,352.018 406.092,351.685 407.5,352C 406.833,363.333 406.167,374.667 405.5,386C 355.733,415.966 305.9,445.799 256,475.5C 206.177,445.683 156.343,415.849 106.5,386C 105.346,374.576 105.18,363.076 106,351.5C 119.38,360.779 132.88,369.945 146.5,379C 148.044,380.187 149.711,380.52 151.5,380C 186.357,351.302 221.023,322.469 255.5,293.5 Z"/></g>
</svg>
