<?xml version="1.0" encoding="UTF-8"?>
<!DOCTYPE svg PUBLIC "-//W3C//DTD SVG 1.1//EN" "http://www.w3.org/Graphics/SVG/1.1/DTD/svg11.dtd">
<svg xmlns="http://www.w3.org/2000/svg" version="1.1" width="1024px" height="1024px" style="shape-rendering:geometricPrecision; text-rendering:geometricPrecision; image-rendering:optimizeQuality; fill-rule:evenodd; clip-rule:evenodd" xmlns:xlink="http://www.w3.org/1999/xlink">
<g><path style="opacity:0.997" fill="#ea4334" d="M 527.5,-0.5 C 537.5,-0.5 547.5,-0.5 557.5,-0.5C 659.358,12.5397 731.191,65.8731 773,159.5C 803.438,241.963 795.771,320.63 750,395.5C 703.647,463.283 639.48,501.949 557.5,511.5C 542.167,511.5 526.833,511.5 511.5,511.5C 511.5,496.167 511.5,480.833 511.5,465.5C 511.333,315.5 511.5,165.5 512,15.5C 514.685,7.64982 519.852,2.31649 527.5,-0.5 Z"/></g>
<g><path style="opacity:0.998" fill="#fbbc03" d="M 511.5,465.5 C 511.5,480.833 511.5,496.167 511.5,511.5C 496.167,511.5 480.833,511.5 465.5,511.5C 315.5,511.667 165.5,511.5 15.5,511C 7.64982,508.315 2.31649,503.148 -0.5,495.5C -0.5,485.5 -0.5,475.5 -0.5,465.5C 12.5397,363.642 65.8731,291.809 159.5,250C 240.555,220.069 318.222,227.069 392.5,271C 462.071,317.268 501.737,382.101 511.5,465.5 Z"/></g>
<g><path style="opacity:0.998" fill="#34a853" d="M 465.5,511.5 C 480.833,511.5 496.167,511.5 511.5,511.5C 511.5,526.833 511.5,542.167 511.5,557.5C 511.667,707.5 511.5,857.5 511,1007.5C 508.315,1015.35 503.148,1020.68 495.5,1023.5C 485.5,1023.5 475.5,1023.5 465.5,1023.5C 366.824,1010.97 295.99,959.967 253,870.5C 219.732,787.51 225.732,707.51 271,630.5C 317.268,560.929 382.101,521.263 465.5,511.5 Z"/></g>
<g><path style="opacity:0.998" fill="#4285f4" d="M 511.5,511.5 C 526.833,511.5 542.167,511.5 557.5,511.5C 707.5,511.333 857.5,511.5 1007.5,512C 1015.35,514.685 1020.68,519.852 1023.5,527.5C 1023.5,537.5 1023.5,547.5 1023.5,557.5C 1010.97,656.176 959.967,727.01 870.5,770C 787.51,803.268 707.51,797.268 630.5,752C 560.929,705.732 521.263,640.899 511.5,557.5C 511.5,542.167 511.5,526.833 511.5,511.5 Z"/></g>
</svg>
