<svg width="32" height="35" viewBox="0 0 32 35" fill="none" xmlns="http://www.w3.org/2000/svg">
<g clip-path="url(#clip0_358_5602)">
<path d="M5.61117 12.204C4.49805 11.3237 3.42076 10.4718 2.34346 9.62003C1.79536 9.18629 1.24454 8.75682 0.699136 8.31952C0.201715 7.92139 0.213881 7.32526 0.74577 6.97912C3.82154 4.97636 6.90203 2.98214 9.97982 0.98436C10.336 0.752888 10.6516 0.831233 10.972 1.08692C12.6041 2.3853 14.2458 3.67014 15.8745 4.97351C16.0895 5.14515 16.2233 5.16367 16.4483 4.98348C18.0575 3.69222 19.6795 2.41948 21.2975 1.14034C21.7997 0.74363 21.972 0.735795 22.5106 1.0855C25.5033 3.0263 28.4959 4.96852 31.4899 6.90647C31.7501 7.07527 31.9684 7.26187 31.9833 7.61442C31.9975 7.94418 31.8393 8.16497 31.598 8.35442C30.076 9.55095 28.5588 10.7539 27.0408 11.9554C26.9435 12.0323 26.8489 12.1142 26.734 12.209C26.8381 12.2973 26.9212 12.3721 27.0084 12.4411C28.527 13.6419 30.047 14.842 31.5656 16.0428C32.1671 16.5186 32.1401 17.0884 31.494 17.5079C29.8402 18.5812 28.1871 19.6574 26.5272 20.7207C26.3109 20.8596 26.221 21.0042 26.2231 21.2812C26.2359 23.2598 26.2231 25.2376 26.2352 27.2161C26.2379 27.6307 26.0899 27.902 25.7581 28.1164C22.7418 30.0636 19.7282 32.0151 16.7214 33.978C16.326 34.2365 15.9948 34.2258 15.6022 33.9694C12.6055 32.0122 9.60135 30.0657 6.59452 28.1271C6.25052 27.9049 6.09845 27.6307 6.10116 27.2019C6.11467 25.2355 6.10048 23.269 6.114 21.3026C6.11603 21.0134 6.02141 20.8596 5.79568 20.715C4.16486 19.6702 2.54149 18.6111 0.915406 17.5577C0.166571 17.0727 0.138186 16.5421 0.832954 15.993C2.334 14.8064 3.83505 13.6191 5.3361 12.4319C5.41653 12.3685 5.49493 12.3015 5.61117 12.2054V12.204ZM7.56909 21.8745C7.55152 21.9493 7.53732 21.9806 7.53732 22.0127C7.53597 23.5881 7.52989 25.1635 7.54544 26.7382C7.54679 26.8629 7.66911 27.031 7.77995 27.1029C10.4813 28.8656 13.1901 30.6156 15.8908 32.3783C16.1063 32.5193 16.2557 32.503 16.4612 32.3691C19.1537 30.6134 21.8497 28.8649 24.5497 27.1221C24.7335 27.0039 24.8105 26.8843 24.8085 26.6492C24.7964 25.1571 24.8024 23.6643 24.8018 22.1722C24.8018 22.0846 24.7916 21.997 24.7835 21.8602C23.9691 22.388 23.1973 22.8887 22.4248 23.3887C22.0085 23.6579 21.7713 23.6486 21.3779 23.3395C20.5764 22.7092 19.7775 22.0753 18.9773 21.4436C18.044 20.7065 17.1107 19.9693 16.1719 19.2286C16.0448 19.3262 15.936 19.4074 15.8293 19.4921C14.2018 20.7777 12.5757 22.0639 10.947 23.3481C10.5725 23.6429 10.3204 23.6536 9.92778 23.4015C9.60135 23.1928 9.27695 22.9806 8.95187 22.7698C8.49635 22.4749 8.04083 22.1807 7.56841 21.8752L7.56909 21.8745ZM8.20236 12.2004C8.26656 12.251 8.29157 12.2745 8.31995 12.293C10.8719 13.9482 13.426 15.5991 15.9719 17.2643C16.1645 17.3904 16.2753 17.3184 16.4199 17.2244C18.7989 15.6803 21.1792 14.1369 23.5589 12.5928C23.7434 12.4732 23.9259 12.3493 24.1192 12.2203C24.0698 12.1741 24.0482 12.1456 24.0198 12.1278C21.4685 10.4711 18.9152 8.81878 16.3679 7.15504C16.1814 7.03325 16.0651 7.09948 15.9158 7.19706C14.4167 8.1728 12.9157 9.14498 11.4153 10.1179C10.3556 10.8052 9.2952 11.4917 8.20168 12.2004H8.20236ZM17.4479 6.08457C20.1114 7.8117 22.7195 9.50536 25.3336 11.1876C25.4073 11.2353 25.5722 11.2083 25.6513 11.1506C26.0115 10.8885 26.3569 10.6036 26.707 10.3266C27.7917 9.46833 28.8771 8.60939 29.9794 7.73692C29.9064 7.67781 29.8577 7.63009 29.8023 7.59376C27.2598 5.94426 24.7146 4.29832 22.1768 2.64098C21.9929 2.52062 21.8862 2.56478 21.7395 2.68229C20.5926 3.59607 19.4416 4.50344 18.292 5.41295C18.0251 5.62448 17.7588 5.83672 17.4472 6.08457H17.4479ZM2.3536 16.6895C2.41375 16.738 2.44754 16.7693 2.48539 16.7942C5.04616 18.4565 7.60896 20.116 10.1657 21.7855C10.3542 21.9087 10.4604 21.8446 10.6063 21.7285C11.96 20.6523 13.3185 19.5826 14.6749 18.51C14.7405 18.458 14.7986 18.396 14.8736 18.3255C12.25 16.6247 9.64934 14.941 7.05342 13.2495C6.88176 13.1377 6.77835 13.1854 6.63913 13.2958C5.38476 14.2943 4.12499 15.2865 2.86724 16.2807C2.69896 16.4139 2.53135 16.5478 2.3536 16.6888V16.6895ZM29.9855 16.7031C29.8794 16.6126 29.7962 16.5378 29.7091 16.4687C28.3891 15.4246 27.0658 14.3862 25.7527 13.3328C25.5533 13.1726 25.4147 13.1576 25.1958 13.3015C23.1669 14.6319 21.1292 15.9488 19.0943 17.2693C18.5536 17.6197 18.0136 17.9708 17.454 18.3333C17.55 18.4138 17.6189 18.4736 17.6898 18.5299C19.0273 19.5883 20.3689 20.6402 21.699 21.71C21.9064 21.8766 22.045 21.8645 22.2559 21.7264C24.209 20.4472 26.1703 19.1802 28.1289 17.9096C28.7399 17.5136 29.3502 17.1161 29.9868 16.7031H29.9855ZM10.3725 2.50994C7.68263 4.25488 5.02454 5.97987 2.33873 7.72196C3.81613 8.89214 5.24554 10.0182 6.66549 11.1577C6.84932 11.3051 6.96353 11.224 7.11087 11.1278C9.61419 9.50252 12.1195 7.87936 14.6235 6.25479C14.6965 6.20707 14.7655 6.15294 14.8743 6.0746C13.3604 4.87593 11.8749 3.69934 10.3725 2.50994Z" fill="#996D01"/>
</g>
<defs>
<clipPath id="clip0_358_5602">
<rect width="31.6667" height="33.3333" fill="white" transform="translate(0.332031 0.833496)"/>
</clipPath>
</defs>
</svg>
